<?xml version="1.0" encoding="utf-8"?>
<!-- Generator: Adobe Illustrator 21.0.1, SVG Export Plug-In . SVG Version: 6.00 Build 0)  -->
<svg version="1.1" id="Layer_1" xmlns="http://www.w3.org/2000/svg" xmlns:xlink="http://www.w3.org/1999/xlink" x="0px" y="0px"
	 viewBox="0 0 64 63" style="enable-background:new 0 0 64 63;" xml:space="preserve">
<style type="text/css">
	.st0{fill:#A8A8A8;}
	.st1{fill:#191919;}
</style>
<g>
	<path class="st0" d="M7,53.9c-0.3,0.3-0.6,0.4-1.1,0.4s-0.8-0.1-1.1-0.4c-0.3-0.3-0.4-0.6-0.4-1.1v-4.3h0.9v4.4
		c0,0.4,0.3,0.6,0.6,0.6s0.6-0.2,0.6-0.6v-4.4h0.9v4.3C7.4,53.3,7.3,53.6,7,53.9z"/>
	<path class="st0" d="M11.3,54.2l-1.4-3.4v3.4H9v-5.7h0.8l1.3,3.4v-3.4H12v5.7H11.3z"/>
	<path class="st0" d="M13.8,54.2v-5.7h0.9v5.7H13.8z"/>
	<path class="st0" d="M18,49.3v4.9h-0.9v-4.9h-1v-0.8h2.8v0.8H18z"/>
	<path class="st0" d="M20.3,54.2v-5.7h2.4v0.8h-1.5v1.6h1.3v0.8h-1.3v1.7h1.5v0.8C22.7,54.2,20.3,54.2,20.3,54.2z"/>
	<path class="st0" d="M26.8,53.8c-0.2,0.3-0.6,0.5-1.1,0.5h-1.5v-5.7h1.5c0.5,0,0.9,0.2,1.1,0.5c0.4,0.5,0.4,1.3,0.4,2.4
		C27.2,52.6,27.3,53.3,26.8,53.8z M26.2,49.5c-0.1-0.1-0.2-0.2-0.5-0.2h-0.5v4.1h0.5c0.2,0,0.4-0.1,0.5-0.2c0.2-0.3,0.2-0.8,0.2-1.8
		S26.4,49.7,26.2,49.5z"/>
	<path class="st0" d="M33.3,54.2l-0.9-2.4L32,52.7v1.5h-1v-5.7h0.9v2.7l1.2-2.7H34l-1.2,2.4l1.3,3.4h-0.8V54.2z"/>
	<path class="st0" d="M35.6,54.2v-5.7h0.9v5.7H35.6z"/>
	<path class="st0" d="M40.4,54.2L39,50.8v3.4h-0.9v-5.7H39l1.3,3.4v-3.4h0.9v5.7H40.4z"/>
	<path class="st0" d="M44.3,54.3c-0.5,0-0.9-0.2-1.1-0.5c-0.4-0.5-0.4-1.3-0.4-2.4s0-2,0.4-2.4c0.2-0.3,0.6-0.5,1.1-0.5
		c0.4,0,0.8,0.1,1,0.4c0.3,0.3,0.4,0.7,0.4,1.2h-0.9c0-0.3-0.1-0.8-0.6-0.8c-0.2,0-0.3,0.1-0.4,0.2c-0.2,0.3-0.2,0.9-0.2,1.9
		s0,1.6,0.2,1.9c0.1,0.1,0.2,0.2,0.4,0.2c0.4,0,0.6-0.3,0.6-0.7v-0.9h-0.6v-0.7h1.5v1.6C45.8,53.7,45.2,54.3,44.3,54.3z"/>
	<path class="st0" d="M49.9,53.8c-0.2,0.3-0.6,0.5-1.1,0.5h-1.5v-5.7h1.5c0.5,0,0.9,0.2,1.1,0.5c0.4,0.5,0.4,1.3,0.4,2.4
		C50.4,52.5,50.4,53.3,49.9,53.8z M49.3,49.5c-0.1-0.1-0.2-0.2-0.5-0.2h-0.5v4.1h0.5c0.2,0,0.4-0.1,0.5-0.2c0.2-0.3,0.2-0.8,0.2-1.8
		S49.4,49.8,49.3,49.5z"/>
	<path class="st0" d="M54.4,53.8c-0.2,0.3-0.6,0.5-1.1,0.5s-0.9-0.2-1.1-0.5c-0.4-0.5-0.4-1.3-0.4-2.4s0-2,0.4-2.4
		c0.2-0.3,0.6-0.5,1.1-0.5s0.9,0.2,1.1,0.5c0.4,0.5,0.4,1.3,0.4,2.4S54.8,53.3,54.4,53.8z M53.7,49.5c-0.1-0.1-0.2-0.2-0.4-0.2
		s-0.3,0.1-0.4,0.2c-0.2,0.3-0.2,0.9-0.2,1.9s0,1.6,0.2,1.9c0.1,0.1,0.2,0.2,0.4,0.2s0.4-0.1,0.4-0.2c0.2-0.3,0.2-0.9,0.2-1.9
		C53.9,50.3,53.9,49.7,53.7,49.5z"/>
	<path class="st0" d="M59.3,54.2v-3.6L58.6,53h-0.5l-0.8-2.3v3.5h-0.9v-5.7h0.8l1.1,3l1.1-3h0.8v5.7H59.3z"/>
</g>
<g>
	<g>
		<path class="st0" d="M8.3,13.1l-0.2,0.1c-0.4,0.1-0.6,0.2-0.9,0.3H7l0.7,2.1l0,0C7.8,15.8,8,16.5,7.5,17c-0.1,0.1-0.3,0.3-0.6,0.4
			c-0.3,0.1-0.6,0.2-0.9,0.1c-0.2,0-0.4-0.1-0.6-0.2c-0.5-0.3-0.8-1.2-1.1-1.7L2,9.7l0,0C1.9,9.5,1.5,8.7,2.1,8
			C2.4,7.8,2.6,7.6,3,7.5c0.4-0.2,0.7-0.2,0.9-0.1c0.4,0,0.5,0.2,0.6,0.2C4.8,7.8,5,8.2,5.3,9.1l0.4,1L5.8,10
			c0.4-0.1,0.6-0.2,0.9-0.3L7,9.6L6.3,7.7c-0.2-0.5-0.4-0.9-0.6-1C5,5.9,3.8,5.8,2.5,6.3c-1,0.4-1.8,1.1-2,2c-0.3,0.9,0,1.5,0.3,2.2
			l2.7,6.3c0.3,0.8,0.5,1.1,0.8,1.4C4.5,18.4,5.1,19,6.1,19c0.4,0,0.8-0.1,1.2-0.2c1.6-0.6,2-1.6,2-2.4c0-0.4,0-0.6-0.2-1.2
			L8.3,13.1z"/>
		<path class="st0" d="M14.9,9.7l1.4,6h0.2c0.3-0.1,0.5-0.1,0.9-0.2h0.2L14.9,2.9V2.8h-0.2c-0.4,0.1-0.6,0.1-1,0.2h-0.2l1.2,5.4
			c-1.2,0.3-1.9,0.5-3.1,0.8L10,4V3.9L9.8,4c-0.4,0.1-0.6,0.2-1,0.3L8.6,4.4l3.6,12.4l0.2-0.1c0.3-0.1,0.5-0.1,0.8-0.2l0.2-0.1
			l-1.7-6C13,10.1,13.7,10,14.9,9.7z"/>
		<path class="st0" d="M22.1,1.6L22,1.5h-0.2c-0.6,0.1-0.9,0.1-1.4,0.2h-0.2v0.2c-0.4,5.2-0.5,7.7-0.6,12.9v0.3h0.3
			c0.4-0.1,0.6-0.1,0.9-0.2H21v-0.2c0-1.5,0-2.3,0.1-3.7c0.9-0.1,1.5-0.2,2.4-0.3c0.4,1.4,0.6,2.1,1,3.5v0.2h0.2
			c0.4,0,0.6-0.1,0.9-0.1h0.3L25.8,14C24.5,9,23.8,6.5,22.1,1.6z M23.1,9.4c-0.8,0.1-1.2,0.2-2,0.3c0.1-2.2,0.2-3.3,0.3-5.6
			C22.2,6.2,22.5,7.3,23.1,9.4z"/>
		<path class="st0" d="M33.7,4c0-0.9,0-1.9-0.8-2.5C32.1,1,31,1,30.1,1l0,0c-0.9,0-1.4,0-2.4,0.1h-0.2l0.3,7.4l0.3,5.5h0.2
			c0.4,0,0.5,0,0.9,0h0.2l-0.2-5.7c0.4,0,0.7,0,1.2,0s1.8,0,2.6-0.9c0.6-0.6,0.7-1.5,0.7-1.9V4z M32.4,5.5c0,0.7-0.3,1.1-0.5,1.2
			C31.5,7,31,7.1,30.5,7.1c-0.6,0-0.9,0-1.4,0L29,2.2c0.5,0,0.8,0,1.4,0c0.8,0,1.1,0,1.5,0.3c0.5,0.3,0.5,0.8,0.5,1.9V5.5z"/>
		<path class="st0" d="M39.6,14.5l0.1-0.2c1.3-3.9,2-6.1,3.3-9.3v0.3c-0.5,3.2-0.8,5.5-1.4,9.3v0.2l1.2,0.2v-0.3
			c0.8-5.1,1.2-7.5,1.9-12.4V2.1h-0.2C43.9,2,43.6,1.9,43,1.8h-0.2V2c-1.5,3.8-2.2,5.8-3.4,9.4c-0.3-3.7-0.6-5.8-1.2-9.9V1.3H38
			c-0.6-0.1-0.9-0.1-1.5-0.1h-0.2v0.2c-0.4,5.1-0.6,7.6-0.9,12.5v0.2l1.3,0.1V14c0.3-3.4,0.4-5.6,0.6-8.4l0.1-1.2
			c0.5,3.5,0.8,5.7,1.1,9.8v0.2L39.6,14.5z"/>
		<path class="st0" d="M50.4,3.2h-0.2l-0.1,0.2c-2.3,4.6-3.3,7-5.3,11.7l-0.1,0.2l0.3,0.1c0.4,0.1,0.6,0.1,0.9,0.2h0.2l0.1-0.2
			c0.6-1.4,0.9-2.1,1.4-3.4c0.9,0.2,1.5,0.4,2.4,0.6c-0.1,1.4-0.2,2.2-0.4,3.7v0.2l0.2,0.1c0.4,0.1,0.5,0.2,0.9,0.3L51,17v-0.3
			c0.6-5.2,0.8-7.7,1-12.9V3.6h-0.2C51.2,3.4,51,3.4,50.4,3.2z M50.5,5.8c-0.1,2.3-0.2,3.4-0.4,5.6c-0.8-0.2-1.2-0.3-2-0.5
			C49,8.9,49.5,7.8,50.5,5.8z"/>
		<path class="st0" d="M63.1,7.6c-0.4-0.2-0.6-0.3-1-0.4L62,7.1l-0.1,0.2c-1.6,3.9-2.5,6.2-3.8,9.5c0.5-3.8,0.7-6.3,1-10.7L59,6
			l-0.2-0.1c-0.6-0.2-0.9-0.3-1.5-0.5l-0.2-0.1l-4.1,12v0.3l0.2,0.1c0.3,0.1,0.5,0.2,0.8,0.3l0.2,0.1l0.2-0.6c1.3-3.7,2-5.9,3.2-9.3
			c-0.2,3.9-0.5,6.2-1.1,10.7v0.2l0.2,0.1c0.2,0.1,0.4,0.2,0.5,0.2l0.2,0.1c0.1,0.1,0.3,0.1,0.5,0.2l0.2,0.1l0.1-0.2
			c1-2.3,1.7-4,2.5-5.7L63.3,8L63.1,7.6z"/>
		<path class="st0" d="M16.5,26.7h1.3V28c0,0.2,0,0.8-0.5,1.3c-0.2,0.2-0.4,0.2-0.6,0.2c-0.5,0-0.8-0.4-0.8-0.5
			c-0.1-0.3-0.2-0.6-0.2-1.4v-4.3v-0.1c0-0.5,0-1,0.4-1.3c0.2-0.2,0.6-0.2,0.7-0.2c0.5,0,0.8,0.2,0.9,0.5c0.1,0.2,0.1,0.6,0.1,0.9
			v1.1h1v-1.5c0-0.1,0-0.5-0.1-0.7c-0.1-0.5-0.6-1.2-1.9-1.2c-0.7,0-1.1,0.2-1.3,0.3c-0.1,0.1-0.2,0.1-0.3,0.3
			c-0.4,0.4-0.5,1.1-0.5,1.7v4.8c0,1,0.1,1.4,0.4,1.9c0.3,0.5,1,0.8,1.6,0.8s1.1-0.3,1.3-0.5v0.4h0.9V26h-2.3L16.5,26.7L16.5,26.7z"
			/>
		<path class="st0" d="M23.6,27.8c0,0.9,0,1.2-0.3,1.5c-0.1,0.1-0.3,0.2-0.6,0.2c-0.5,0-0.7-0.2-0.8-0.4c-0.1-0.2-0.2-0.5-0.2-1
			v-7.2h-1v7.2c0,0.6,0,1.1,0.4,1.7c0.1,0.2,0.2,0.3,0.3,0.3c0.4,0.3,1,0.4,1.3,0.4c0.4,0,1.5-0.1,1.9-1.2l0,0
			c0.1-0.3,0.1-0.6,0.1-1v-7.5h-1L23.6,27.8L23.6,27.8z"/>
		<rect x="26.5" y="20.8" class="st0" width="1.1" height="9.5"/>
		<polygon class="st0" points="28.8,21.8 30.3,21.8 30.3,30.3 31.4,30.3 31.4,21.8 33,21.8 33,20.8 28.8,20.8 		"/>
		<path class="st0" d="M36.2,20.8H35l-1.7,9.3v0.2h1.1l0.5-2.8h1.5l0.5,2.8H38L36.2,21V20.8z M36.2,26.5H35l0.6-3.5L36.2,26.5z"/>
		<path class="st0" d="M42.1,25.8v-0.1V25.8L42.1,25.8c0.3-0.1,0.9-0.4,1-1.1c0.1-0.2,0.1-0.6,0.1-0.6v-1.4c0-0.2,0-0.9-0.6-1.4
			c-0.4-0.3-0.9-0.4-1.4-0.4h-1.9v9.5h1V26H41l1.6,4.4h1.1L42.1,25.8L42.1,25.8z M42.2,24.2c0,0.2,0,0.5-0.4,0.7
			c-0.1,0-0.2,0.1-0.5,0.1h-0.9v-3.2h1c0.2,0,0.4,0,0.5,0.1c0.3,0.2,0.3,0.5,0.3,0.9C42.2,22.8,42.2,24.2,42.2,24.2z"/>
		<path class="st0" d="M47.3,25.3l-0.1-0.1c-0.2-0.2-0.4-0.4-0.6-0.7c-0.5-0.6-0.7-0.9-0.7-1.7c0-0.5,0.1-0.9,0.3-1
			c0.1-0.1,0.3-0.1,0.5-0.1c0.5,0,0.7,0.2,0.8,0.6c0,0.2,0,0.2,0,0.6v1h1V23c0-0.7,0-1.5-0.7-2c-0.3-0.2-0.7-0.3-1.2-0.3
			c-1,0-1.7,0.5-1.8,1.5c0,0.2-0.1,0.6-0.1,0.7c0,0.7,0.2,1.3,0.5,1.8c0.2,0.3,0.6,0.7,1.1,1.2c0.1,0.1,0.7,0.6,1,1.1
			c0.1,0.2,0.3,0.5,0.3,1.2c0,0.6-0.1,1-0.4,1.1c-0.2,0.1-0.5,0.1-0.5,0.1c-0.7,0-1.1-0.3-1.1-1.1c0-0.1,0-0.2,0-0.4
			c0-0.1,0-0.1,0-0.2v-0.9h-1v1.5c0,0.3,0,0.5,0.1,0.8s0.3,0.5,0.5,0.7c0.1,0.1,0.5,0.4,1.4,0.4c1,0,1.5-0.4,1.7-0.7l0,0
			c0.2-0.4,0.4-0.9,0.4-1.6c0-1.2-0.8-2-0.9-2.1C47.6,25.6,47.5,25.5,47.3,25.3z"/>
	</g>
</g>
<path class="st1" d="M61.3,62.7H3.5c-0.6,0-1-0.4-1-1s0.4-1,1-1h57.8c0.6,0,1,0.4,1,1S61.9,62.7,61.3,62.7z"/>
<path class="st1" d="M61.3,41.8H3.5c-0.6,0-1-0.4-1-1s0.4-1,1-1h57.8c0.6,0,1,0.4,1,1S61.9,41.8,61.3,41.8z"/>
</svg>
