<?xml version="1.0" encoding="utf-8"?>
<!-- Generator: Adobe Illustrator 21.0.0, SVG Export Plug-In . SVG Version: 6.00 Build 0)  -->
<svg version="1.1" id="Layer_1" xmlns="http://www.w3.org/2000/svg" xmlns:xlink="http://www.w3.org/1999/xlink" x="0px" y="0px"
	 viewBox="0 0 283.5 56.7" style="enable-background:new 0 0 283.5 56.7;" xml:space="preserve">
<style type="text/css">
	.st0{fill:#A39D9D;}
</style>
<path class="st0" d="M175.9,1.3c-15.1,0-28,13.1-34.5,21.4c-10-9.6-24-21-35.3-21.4c-0.5,0-1,0-1.5,0c-7.4,0-13.3,2.1-17.7,6.3
	c-4.9,4.7-7.5,12-7.5,20.8c0,7,4.9,27.1,26.7,27.1c18.7,0,31.5-16,34.2-19.6c2.9,3.4,16.5,18.5,35.6,18.5c0.1,0,0.3,0,0.4,0
	c20.1-0.3,23.9-17.1,24.6-22.2c0.1-0.7,0.2-1.4,0.2-2.2C201,16.1,193.1,1.3,175.9,1.3z M193.2,30.8c0,3.7-1.2,15.8-16,15.8
	c-12.7,0-22.1-9.8-29.6-17.7c-0.6-0.6-1.2-1.2-1.8-1.8c0.5-0.5,1.1-1.2,1.6-1.8c5.4-5.9,14.3-15.9,27.5-15.9
	C192.4,9.3,193.1,29.8,193.2,30.8z M134.5,30.1c-1.8,2.5-12,16.4-23.5,16.4c-14.3,0-22.4-9.4-22.8-18.2c0-0.1-1.1-9.5,3.8-15
	c2.4-2.7,5.7-4,10.1-4C117.3,9.3,132.3,27.3,134.5,30.1z"/>
<path class="st0" d="M66.6,32.1H3.9c-2.2,0-3.9-1.7-3.9-3.9s1.7-3.9,3.9-3.9h62.7c2.2,0,3.9,1.7,3.9,3.9S68.8,32.1,66.6,32.1z"/>
<path class="st0" d="M279.6,32.1h-62.7c-2.2,0-3.9-1.7-3.9-3.9s1.7-3.9,3.9-3.9h62.7c2.2,0,3.9,1.7,3.9,3.9S281.7,32.1,279.6,32.1z"
	/>
</svg>
